
<svg width="180" height="50" viewBox="0 0 180 50" fill="none" xmlns="http://www.w3.org/2000/svg">
  <path d="M25 10C17.268 10 11 16.268 11 24C11 31.732 17.268 38 25 38C32.732 38 39 31.732 39 24C39 16.268 32.732 10 25 10ZM25 34C19.486 34 15 29.514 15 24C15 18.486 19.486 14 25 14C30.514 14 35 18.486 35 24C35 29.514 30.514 34 25 34Z" fill="#15437F"/>
  <path d="M25 18C21.686 18 19 20.686 19 24C19 27.314 21.686 30 25 30C28.314 30 31 27.314 31 24C31 20.686 28.314 18 25 18ZM25 26C23.895 26 23 25.105 23 24C23 22.895 23.895 22 25 22C26.105 22 27 22.895 27 24C27 25.105 26.105 26 25 26Z" fill="#D4AF37"/>
  <text x="55" y="30" font-family="Arial, sans-serif" font-weight="bold" font-size="16" fill="#15437F">الوصل</text>
</svg>
